<svg width="211" height="262" viewBox="0 0 211 262" fill="none" xmlns="http://www.w3.org/2000/svg">
<path d="M106.678 5.04116C103.991 3.79387 100.976 3.53865 98.2966 4.33148C95.6169 5.1243 93.4906 6.90043 92.3844 9.2702L4.1613 198.882C3.06108 201.255 3.0719 204.025 4.19137 206.586C5.31083 209.146 7.44753 211.288 10.1327 212.54L104.177 256.297C106.864 257.545 109.879 257.8 112.558 257.007C115.238 256.214 117.364 254.438 118.471 252.068L206.694 62.4562C207.794 60.0836 207.783 57.3132 206.664 54.7527C205.544 52.1922 203.407 50.0507 200.722 48.7981L106.678 5.04116Z" fill="#3F2F2F"/>
<path d="M184.173 94.4706L191.252 79.2553C186.402 75.6782 182.318 71.2768 179.257 66.3303C176.197 61.3837 174.228 56 173.476 50.5204L173.475 50.5205C171.776 50.7669 169.984 50.4909 168.364 49.7335L154.676 43.3646C154.589 53.0994 157.264 62.9298 162.435 71.8901C167.607 80.8504 175.098 88.6321 184.173 94.4706Z" fill="white"/>
<path d="M191.658 78.3833L198.459 63.7668C198.957 62.6977 199.211 61.528 199.207 60.3244C199.204 59.1209 198.942 57.9071 198.437 56.7525C197.932 55.5979 197.194 54.525 196.265 53.5952C195.336 52.6654 194.235 51.8969 193.023 51.3336L179.733 45.1501L179.077 46.5615C178.657 47.4674 178.033 48.2672 177.243 48.9123C176.453 49.5575 175.513 50.0346 174.481 50.3147C175.19 55.6543 177.083 60.9055 180.04 65.7367C182.996 70.5678 186.952 74.874 191.658 78.3833Z" fill="white"/>
<path d="M134.543 33.9973L125.984 30.0148C123.97 29.0771 122.367 27.4717 121.528 25.5518C120.689 23.6319 120.683 21.5546 121.51 19.7769L122.167 18.3655L109.697 12.5636C108.486 11.9999 107.189 11.6523 105.879 11.5407C104.57 11.4291 103.274 11.5557 102.065 11.9132C100.857 12.2707 99.7601 12.8521 98.837 13.6242C97.9139 14.3964 97.1828 15.3441 96.6854 16.4134L12.3932 197.577C11.8944 198.646 11.6395 199.815 11.6429 201.019C11.6464 202.222 11.9083 203.436 12.4135 204.591C12.9187 205.745 13.6573 206.817 14.5871 207.747C15.5168 208.676 16.6194 209.443 17.8316 210.005L101.157 248.775C101.537 248.952 101.926 249.108 102.323 249.242C104.668 250.035 107.165 250.034 109.346 249.24C111.527 248.446 113.241 246.914 114.167 244.931L176.218 111.567C147.355 94.3665 130.983 63.5311 134.543 33.9973Z" fill="white"/>
<path d="M153.637 42.8815L135.544 34.463C132.163 63.5026 148.27 93.7728 176.615 110.715L183.77 95.3372C174.443 89.3637 166.751 81.3752 161.463 72.1702C156.176 62.9651 153.477 52.8658 153.637 42.8815Z" fill="white"/>
<path d="M128.956 196.549L43.4614 156.77C43.0419 156.574 42.7081 156.239 42.5331 155.839C42.3582 155.439 42.3565 155.006 42.5284 154.635L51.238 135.917C51.4108 135.546 51.7431 135.269 52.1618 135.145C52.5805 135.021 53.0514 135.061 53.4714 135.256L138.966 175.035C139.386 175.231 139.72 175.565 139.894 175.965C140.069 176.365 140.071 176.798 139.899 177.169L131.19 195.888C131.017 196.258 130.685 196.536 130.266 196.66C129.847 196.783 129.376 196.744 128.956 196.549ZM53.2113 135.815C52.9593 135.698 52.6767 135.674 52.4255 135.748C52.1743 135.823 51.975 135.989 51.8712 136.211L43.1617 154.93C43.0585 155.153 43.0596 155.412 43.1645 155.652C43.2695 155.892 43.4698 156.093 43.7215 156.211L129.216 195.99C129.468 196.107 129.751 196.131 130.002 196.056C130.253 195.982 130.453 195.815 130.556 195.593L139.266 176.874C139.369 176.652 139.368 176.392 139.263 176.152C139.158 175.912 138.958 175.711 138.706 175.594L53.2113 135.815Z" fill="#E6E6E6"/>
<path d="M56.8183 157.038C60.4908 158.747 64.6905 157.504 66.1988 154.263C67.707 151.021 65.9525 147.008 62.28 145.3C58.6076 143.591 54.4078 144.834 52.8996 148.075C51.3914 151.317 53.1459 155.33 56.8183 157.038Z" fill="#3F3D56"/>
<path d="M76.7272 154.402C76.4332 154.265 76.1034 154.237 75.8102 154.324C75.517 154.41 75.2845 154.605 75.1638 154.864C75.043 155.124 75.044 155.427 75.1665 155.707C75.289 155.987 75.5229 156.221 75.8169 156.358L128.064 180.667C128.357 180.804 128.687 180.832 128.981 180.746C129.274 180.659 129.506 180.464 129.627 180.205C129.748 179.945 129.747 179.642 129.624 179.362C129.502 179.082 129.268 178.848 128.974 178.711L76.7272 154.402Z" fill="#E6E6E6"/>
<path d="M73.9963 160.271C73.7024 160.134 73.3725 160.106 73.0793 160.193C72.7861 160.28 72.5536 160.474 72.4329 160.734C72.3122 160.993 72.3131 161.296 72.4356 161.576C72.5581 161.856 72.792 162.091 73.086 162.227L125.333 186.537C125.627 186.674 125.956 186.702 126.25 186.615C126.543 186.528 126.775 186.334 126.896 186.074C127.017 185.815 127.016 185.512 126.893 185.231C126.771 184.951 126.537 184.717 126.243 184.58L73.9963 160.271Z" fill="#E6E6E6"/>
<path d="M114.392 227.851L28.897 188.072C28.4775 187.876 28.1436 187.542 27.9687 187.142C27.7938 186.741 27.7921 186.309 27.964 185.938L36.6735 167.219C36.8464 166.849 37.1786 166.571 37.5973 166.447C38.016 166.324 38.487 166.363 38.907 166.558L124.402 206.337C124.821 206.533 125.155 206.868 125.33 207.268C125.505 207.668 125.507 208.101 125.335 208.471L116.625 227.19C116.452 227.561 116.12 227.838 115.701 227.962C115.283 228.086 114.812 228.046 114.392 227.851ZM38.6469 167.117C38.3949 167 38.1123 166.976 37.8611 167.051C37.6099 167.125 37.4105 167.292 37.3068 167.514L28.5973 186.233C28.4941 186.455 28.4951 186.715 28.6001 186.955C28.705 187.195 28.9054 187.396 29.1571 187.513L114.652 227.292C114.904 227.409 115.186 227.433 115.438 227.359C115.689 227.284 115.888 227.118 115.992 226.896L124.701 208.177C124.805 207.954 124.804 207.695 124.699 207.455C124.594 207.215 124.393 207.014 124.142 206.896L38.6469 167.117Z" fill="#E6E6E6"/>
<path d="M42.2538 188.341C45.9263 190.05 50.126 188.807 51.6342 185.566C53.1424 182.324 51.388 178.311 47.7155 176.602C44.043 174.894 39.8433 176.136 38.3351 179.378C36.8269 182.619 38.5813 186.632 42.2538 188.341Z" fill="#3F3D56"/>
<path d="M62.1626 185.704C61.8687 185.567 61.5388 185.539 61.2456 185.626C60.9524 185.713 60.7199 185.907 60.5992 186.167C60.4785 186.426 60.4795 186.729 60.6019 187.01C60.7244 187.29 60.9584 187.524 61.2523 187.661L113.499 211.97C113.793 212.107 114.123 212.135 114.416 212.048C114.709 211.961 114.942 211.767 115.062 211.508C115.183 211.248 115.182 210.945 115.06 210.665C114.937 210.385 114.703 210.15 114.409 210.014L62.1626 185.704Z" fill="#E6E6E6"/>
<path d="M59.4317 191.574C59.1378 191.437 58.808 191.409 58.5148 191.495C58.2216 191.582 57.9891 191.777 57.8683 192.036C57.7476 192.296 57.7486 192.599 57.8711 192.879C57.9936 193.159 58.2275 193.393 58.5215 193.53L110.768 217.839C111.062 217.976 111.392 218.004 111.685 217.918C111.978 217.831 112.211 217.636 112.332 217.377C112.452 217.117 112.451 216.814 112.329 216.534C112.206 216.254 111.972 216.02 111.678 215.883L59.4317 191.574Z" fill="#E6E6E6"/>
<path d="M102.483 136.977C98.5319 135.14 94.9385 132.634 91.9087 129.602C88.8789 126.57 86.472 123.071 84.8257 119.305C83.1793 115.539 82.3257 111.581 82.3137 107.656C82.3017 103.731 83.1315 99.9159 84.7557 96.4295C84.7815 96.374 84.8089 96.3155 84.8383 96.2616C91.6959 81.764 110.698 76.2009 127.191 83.8746C133.977 87.0328 139.621 92.1231 143.206 98.3187C146.792 104.514 148.108 111.451 146.942 118.003C145.776 124.555 142.195 130.337 136.782 134.409C131.369 138.482 124.44 140.607 117.123 140.438C112.125 140.33 107.113 139.145 102.483 136.977ZM126.931 84.4335C119.149 80.8312 110.428 80.0856 102.664 82.3588C94.8991 84.6319 88.7178 89.7402 85.463 96.5735C85.432 96.6313 85.41 96.679 85.389 96.7242C82.32 103.315 82.2027 110.98 85.0608 118.169C87.9188 125.357 93.5388 131.532 100.783 135.443C108.027 139.354 116.355 140.709 124.08 139.234C131.805 137.76 138.351 133.565 142.393 127.499C144.669 124.087 146.077 120.193 146.523 116.079C146.968 111.965 146.441 107.725 144.976 103.646C143.512 99.5661 141.143 95.7408 138.031 92.427C134.918 89.1132 131.134 86.3877 126.931 84.4335Z" fill="#E9C2C2"/>
<path d="M127.862 118.05L112.154 97.9778C112.081 97.884 111.984 97.8073 111.873 97.7556C111.761 97.7039 111.64 97.6789 111.521 97.6832C111.402 97.6874 111.289 97.7208 111.194 97.7799C111.099 97.839 111.025 97.9218 110.979 98.0199L101.216 119.004C101.17 119.102 101.154 119.212 101.17 119.323C101.186 119.434 101.233 119.542 101.307 119.636C101.38 119.73 101.478 119.806 101.589 119.858C101.7 119.91 101.821 119.935 101.94 119.93L127.411 119.018C127.53 119.014 127.643 118.98 127.738 118.921C127.833 118.862 127.907 118.779 127.953 118.681C127.999 118.583 128.014 118.473 127.998 118.362C127.982 118.251 127.935 118.144 127.862 118.05L112.154 97.9778C112.081 97.884 111.984 97.8073 111.873 97.7556C111.761 97.7039 111.64 97.6789 111.521 97.6832C111.402 97.6874 111.289 97.7208 111.194 97.7799C111.099 97.839 111.025 97.9218 110.979 98.0199L101.216 119.004C101.17 119.102 101.154 119.212 101.17 119.323C101.186 119.434 101.233 119.542 101.307 119.636C101.38 119.73 101.478 119.806 101.589 119.858C101.7 119.91 101.821 119.935 101.94 119.93L127.411 119.018C127.53 119.014 127.643 118.98 127.738 118.921C127.833 118.862 127.907 118.779 127.953 118.681C127.999 118.583 128.014 118.473 127.998 118.362C127.982 118.251 127.935 118.144 127.862 118.05Z" fill="#6C63FF"/>
</svg>
