<svg width="275" height="263" viewBox="0 0 275 263" fill="none" xmlns="http://www.w3.org/2000/svg">
<path d="M241.553 174.637C269.864 210.834 187.795 263 121.482 263C55.169 263 9.29059 222.581 1.41149 174.637C-17.6927 58.3892 164.183 -15.4972 121.482 86.2738C59.2403 234.617 219.258 146.131 241.553 174.637Z" fill="#8A86B9"/>
<path d="M87.8513 61.9809C89.1833 61.9809 90.2631 60.7325 90.2631 59.1925C90.2631 57.6525 89.1833 56.4041 87.8513 56.4041C86.5193 56.4041 85.4395 57.6525 85.4395 59.1925C85.4395 60.7325 86.5193 61.9809 87.8513 61.9809Z" fill="#D0CDE1"/>
<path d="M55.158 228.975C56.49 228.975 57.5698 227.727 57.5698 226.187C57.5698 224.647 56.49 223.399 55.158 223.399C53.826 223.399 52.7462 224.647 52.7462 226.187C52.7462 227.727 53.826 228.975 55.158 228.975Z" fill="#D0CDE1"/>
<path d="M92.1392 101.328C92.7312 101.328 93.2111 100.773 93.2111 100.089C93.2111 99.4046 92.7312 98.8498 92.1392 98.8498C91.5472 98.8498 91.0673 99.4046 91.0673 100.089C91.0673 100.773 91.5472 101.328 92.1392 101.328Z" fill="#D0CDE1"/>
<path d="M35.8633 165.772C36.4553 165.772 36.9352 165.217 36.9352 164.532C36.9352 163.848 36.4553 163.293 35.8633 163.293C35.2712 163.293 34.7913 163.848 34.7913 164.532C34.7913 165.217 35.2712 165.772 35.8633 165.772Z" fill="#D0CDE1"/>
<path d="M176.821 212.245C177.413 212.245 177.893 211.69 177.893 211.006C177.893 210.321 177.413 209.766 176.821 209.766C176.229 209.766 175.749 210.321 175.749 211.006C175.749 211.69 176.229 212.245 176.821 212.245Z" fill="#D0CDE1"/>
<path d="M32.3798 102.568C32.9718 102.568 33.4517 102.013 33.4517 101.328C33.4517 100.644 32.9718 100.089 32.3798 100.089C31.7878 100.089 31.3079 100.644 31.3079 101.328C31.3079 102.013 31.7878 102.568 32.3798 102.568Z" fill="#D0CDE1"/>
<path d="M97.4988 68.4873H96.963V67.8674H96.6949V68.4873H96.159V68.7969H96.6949V69.4168H96.963V68.7969H97.4988V68.4873Z" fill="#D0CDE1"/>
<path d="M56.4976 78.7115H55.9617V78.0916H55.6936V78.7115H55.1577V79.0211H55.6936V79.6407H55.9617V79.0211H56.4976V78.7115Z" fill="#D0CDE1"/>
<path d="M29.6999 136.958H29.164V136.338H28.8959V136.958H28.36V137.268H28.8959V137.888H29.164V137.268H29.6999V136.958Z" fill="#D0CDE1"/>
<path d="M105.002 238.89C105.594 238.89 106.074 238.335 106.074 237.651C106.074 236.966 105.594 236.411 105.002 236.411C104.41 236.411 103.93 236.966 103.93 237.651C103.93 238.335 104.41 238.89 105.002 238.89Z" fill="#D0CDE1"/>
<path d="M101.518 175.686C102.11 175.686 102.59 175.131 102.59 174.447C102.59 173.762 102.11 173.207 101.518 173.207C100.926 173.207 100.446 173.762 100.446 174.447C100.446 175.131 100.926 175.686 101.518 175.686Z" fill="#D0CDE1"/>
<path d="M228.273 198.613C228.865 198.613 229.345 198.058 229.345 197.374C229.345 196.689 228.865 196.134 228.273 196.134C227.681 196.134 227.201 196.689 227.201 197.374C227.201 198.058 227.681 198.613 228.273 198.613Z" fill="#D0CDE1"/>
<path d="M98.8387 210.076H98.3028V209.457H98.035V210.076H97.4988V210.386H98.035V211.006H98.3028V210.386H98.8387V210.076Z" fill="#D0CDE1"/>
<path d="M150.827 232.074H150.291V231.454H150.023V232.074H149.487V232.384H150.023V233.003H150.291V232.384H150.827V232.074Z" fill="#D0CDE1"/>
<path d="M19.5166 176.925H18.9807V176.306H18.7127V176.925H18.1768V177.235H18.7127V177.855H18.9807V177.235H19.5166V176.925Z" fill="#D0CDE1"/>
<path d="M94.0148 132.311H93.4789V131.691H93.2108V132.311H92.6749V132.621H93.2108V133.24H93.4789V132.621H94.0148V132.311Z" fill="#D0CDE1"/>
<path d="M61.0534 95.7515H60.5176V95.1319H60.2495V95.7515H59.7136V96.0614H60.2495V96.681H60.5176V96.0614H61.0534V95.7515Z" fill="#D0CDE1"/>
<path d="M83.0277 156.787H82.4918V156.167H82.2237V156.787H81.6878V157.097H82.2237V157.716H82.4918V157.097H83.0277V156.787Z" fill="#D0CDE1"/>
<path d="M50.8702 195.205H50.3343V194.585H50.0662V195.205H49.5303V195.514H50.0662V196.134H50.3343V195.514H50.8702V195.205Z" fill="#D0CDE1"/>
<path d="M61.8576 142.845C70.5897 142.845 77.6684 141.596 77.6684 140.056C77.6684 138.516 70.5897 137.268 61.8576 137.268C53.1255 137.268 46.0468 138.516 46.0468 140.056C46.0468 141.596 53.1255 142.845 61.8576 142.845Z" fill="#6C63FF"/>
<path d="M63.4652 140.986C57.002 140.986 47.3864 140.161 47.3864 137.888C47.3864 135.614 57.002 134.789 63.4652 134.789C69.9283 134.789 79.5439 135.614 79.5439 137.888C79.5439 140.161 69.9283 140.986 63.4652 140.986ZM63.4652 135.409C59.2549 135.409 55.2988 135.698 52.3257 136.222C48.8426 136.836 47.9223 137.58 47.9223 137.888C47.9223 138.195 48.8426 138.939 52.3257 139.553C55.2988 140.077 59.2549 140.366 63.4652 140.366C67.6754 140.366 71.6315 140.077 74.6046 139.553C78.0877 138.939 79.008 138.195 79.008 137.888C79.008 137.58 78.0877 136.836 74.6046 136.222C71.6315 135.698 67.6754 135.409 63.4652 135.409Z" fill="#D0CDE1"/>
<path d="M63.4652 92.6533C57.8412 92.6533 53.282 94.2065 53.282 100.709C53.282 107.211 57.8412 133.24 63.4652 133.24C69.0893 133.24 73.6485 107.211 73.6485 100.709C73.6485 94.2065 69.0893 92.6533 63.4652 92.6533ZM63.4652 109.384C62.6172 109.384 61.7882 109.093 61.0831 108.548C60.378 108.004 59.8285 107.229 59.5039 106.324C59.1794 105.418 59.0945 104.421 59.26 103.459C59.4254 102.498 59.8338 101.615 60.4334 100.921C61.033 100.228 61.797 99.7559 62.6288 99.5647C63.4605 99.3734 64.3226 99.4716 65.1061 99.8468C65.8896 100.222 66.5592 100.857 67.0303 101.673C67.5015 102.488 67.7529 103.446 67.7529 104.427C67.7529 105.078 67.642 105.722 67.4265 106.324C67.2111 106.925 66.8952 107.472 66.4971 107.932C66.0989 108.392 65.6263 108.757 65.1061 109.006C64.5859 109.256 64.0283 109.384 63.4652 109.384Z" fill="#6C63FF"/>
<path d="M253.795 163.547C231.5 135.041 71.4824 223.527 133.724 75.1839C161.469 9.0598 94.4074 17.0912 49.2646 62.7147C92.9792 28.011 145.746 27.0108 120.593 86.9572C58.3514 235.3 218.369 146.814 240.664 175.32C251.038 188.584 246.59 203.993 233.528 218.193C255.979 201.18 267.127 180.593 253.795 163.547Z" fill="#D0CDE1"/>
<path d="M122.584 262.433L122.24 262.284C122.164 262.251 114.624 258.911 111.092 251.338C107.559 243.764 109.289 234.646 109.307 234.555L109.388 234.139L109.733 234.289C109.809 234.322 117.349 237.662 120.881 245.235C124.413 252.808 122.684 261.927 122.666 262.018L122.584 262.433ZM111.657 250.985C114.644 257.388 120.602 260.671 122.112 261.42C122.399 259.549 123.299 251.984 120.315 245.587C117.332 239.191 111.371 235.904 109.861 235.153C109.574 237.025 108.674 244.589 111.657 250.985H111.657Z" fill="#D0CDE1"/>
<path d="M113.791 249.053C120.138 253.468 122.583 262.238 122.583 262.238C122.583 262.238 114.736 263.849 108.389 259.434C102.041 255.019 99.5962 246.249 99.5962 246.249C99.5962 246.249 107.443 244.637 113.791 249.053Z" fill="#6C63FF"/>
<path d="M202.857 88.7232C202.857 88.7232 188.312 105.203 194.421 107.221C200.53 109.239 207.512 92.0864 207.512 92.0864L202.857 88.7232Z" fill="#FFB9B9"/>
<path d="M217.402 144.216L215.657 153.633L228.747 154.305L226.711 144.216H217.402Z" fill="#FFB9B9"/>
<path d="M258.71 202.399L256.964 211.816L270.055 212.488L268.018 202.399H258.71Z" fill="#FFB9B9"/>
<path d="M235.729 81.3242L236.892 86.7053C236.892 86.7053 204.603 79.3063 206.348 98.1402C208.094 116.974 215.657 135.135 215.657 135.135C215.657 135.135 215.075 141.189 216.239 142.198C217.402 143.207 216.239 146.57 216.239 146.57C216.239 146.57 227.002 148.252 227.293 145.225C227.449 143.201 227.351 141.162 227.002 139.171C227.002 139.171 227.584 139.171 227.002 135.808C226.42 132.445 224.07 105.321 222.325 101.622C222.325 101.622 237.765 115.292 245.91 113.611C245.91 113.611 244.747 127.064 249.401 144.889C254.055 162.713 254.055 164.731 254.055 164.731C254.055 164.731 259.582 198.7 258.128 202.735L257.837 204.417H268.6C268.6 204.417 267.728 186.592 268.6 184.238C269.473 181.884 269.473 161.704 264.528 151.615C261.026 144.47 261.678 123.753 263.594 115.564C265.202 108.687 265.608 103.395 264.665 96.3549C263.657 88.8267 260.646 84.8915 256.964 81.3242H235.729Z" fill="#151421"/>
<path d="M244.31 30.7082C250.094 30.7082 254.782 25.2875 254.782 18.6007C254.782 11.9139 250.094 6.49323 244.31 6.49323C238.526 6.49323 233.838 11.9139 233.838 18.6007C233.838 25.2875 238.526 30.7082 244.31 30.7082Z" fill="#FFB9B9"/>
<path d="M241.547 27.1769C241.547 27.1769 244.747 37.9391 244.456 39.957C244.165 41.9749 253.764 35.9212 253.764 35.9212C253.764 35.9212 249.983 25.159 251.146 22.1321L241.547 27.1769Z" fill="#FFB9B9"/>
<path d="M253.183 32.2215L243.001 36.9299L243.583 40.9658C243.583 40.9658 242.71 42.311 243.001 42.9837C243.292 43.6563 239.219 46.3469 239.801 47.3558C240.383 48.3648 236.31 52.4006 236.601 53.4095C236.892 54.4185 227.293 60.4723 232.529 72.2434C232.529 72.2434 235.244 76.3237 234.903 81.149C234.891 81.3186 234.876 81.489 234.856 81.6603C234.274 86.7051 256.964 80.9877 256.964 80.9877V75.2703C256.964 75.2703 259 74.2613 258.71 69.8892C258.419 65.517 256.673 67.5349 258.71 65.1807C260.746 62.8265 260.746 63.1628 260.455 61.1449C260.339 60.3391 260.315 57.4417 260.329 54.2516C260.356 47.5114 258.457 40.9495 254.928 35.5847L253.183 32.2215Z" fill="#D0CDE1"/>
<path d="M247.656 40.9658L228.747 63.8355L201.112 89.0594L207.221 94.7768L258.128 55.4275C258.128 55.4275 262.491 33.9031 247.656 40.9658Z" fill="#D0CDE1"/>
<path d="M218.275 149.261C218.275 149.261 216.239 145.225 214.784 146.57L204.603 155.987C204.603 155.987 186.567 162.041 204.021 166.749C204.021 166.749 213.621 168.431 215.657 166.749C217.693 165.068 220.893 165.404 221.766 166.076C222.638 166.749 233.692 165.74 233.692 163.05C233.692 160.359 227.596 148.6 227.596 148.6C227.596 148.6 224.093 153.296 218.275 149.261Z" fill="#2F2E41"/>
<path d="M259.582 207.444C259.582 207.444 257.546 203.408 256.092 204.753L245.91 214.17C245.91 214.17 227.874 220.224 245.328 224.932C245.328 224.932 254.928 226.614 256.964 224.932C259.001 223.251 262.2 223.587 263.073 224.26C263.946 224.932 275 223.923 275 221.233C275 218.542 268.903 206.783 268.903 206.783C268.903 206.783 265.4 211.48 259.582 207.444Z" fill="#2F2E41"/>
<path d="M231.76 13.7991C231.76 13.7991 233.531 -4.19613 248.675 0.913303C248.675 0.913303 259.388 -1.6061 263.172 13.8638L267.013 30.0829L265.255 29.0266L264.478 31.0945L261.672 31.9826L260.42 29.2408L259.892 32.6159L240.516 37.145C240.516 37.145 247.069 28.4888 247.022 15.811L245.092 18.2617L231.76 13.7991Z" fill="#2F2E41"/>
<path d="M161.814 173.207C177.502 173.207 190.22 171.265 190.22 168.87C190.22 166.474 177.502 164.532 161.814 164.532C146.126 164.532 133.408 166.474 133.408 168.87C133.408 171.265 146.126 173.207 161.814 173.207Z" fill="#2F2E41"/>
<path d="M177.246 116.422H176.909V105.772C176.909 104.962 176.771 104.161 176.504 103.413C176.236 102.665 175.843 101.985 175.348 101.413C174.853 100.841 174.265 100.387 173.618 100.077C172.971 99.767 172.278 99.6075 171.578 99.6075H152.06C151.36 99.6075 150.667 99.767 150.02 100.077C149.373 100.387 148.785 100.841 148.29 101.413C147.795 101.985 147.403 102.665 147.135 103.413C146.867 104.161 146.729 104.962 146.729 105.772V164.201C146.729 165.011 146.867 165.812 147.135 166.56C147.403 167.308 147.795 167.988 148.29 168.56C148.785 169.133 149.373 169.587 150.02 169.896C150.667 170.206 151.36 170.366 152.06 170.366H171.578C172.278 170.366 172.971 170.206 173.618 169.896C174.265 169.587 174.853 169.133 175.348 168.56C175.843 167.988 176.236 167.308 176.504 166.56C176.771 165.812 176.909 165.011 176.909 164.201V124.004H177.246V116.422Z" fill="#3F3D56"/>
<path d="M171.667 101.357H169.119C169.236 101.689 169.281 102.05 169.25 102.406C169.218 102.763 169.111 103.105 168.938 103.403C168.765 103.701 168.531 103.945 168.257 104.113C167.983 104.282 167.678 104.37 167.368 104.37H156.187C155.877 104.37 155.571 104.282 155.297 104.113C155.024 103.945 154.79 103.701 154.617 103.403C154.444 103.105 154.337 102.763 154.305 102.406C154.273 102.05 154.318 101.689 154.435 101.357H152.056C151.533 101.357 151.015 101.476 150.532 101.708C150.049 101.939 149.61 102.278 149.24 102.705C148.871 103.133 148.577 103.64 148.377 104.199C148.177 104.757 148.074 105.356 148.074 105.961V164.305C148.074 164.909 148.177 165.508 148.377 166.066C148.577 166.625 148.871 167.132 149.24 167.56C149.61 167.987 150.049 168.326 150.532 168.557C151.015 168.789 151.533 168.908 152.056 168.908H171.667C172.19 168.908 172.708 168.789 173.191 168.557C173.674 168.326 174.113 167.987 174.482 167.56C174.852 167.132 175.145 166.625 175.345 166.066C175.546 165.508 175.649 164.909 175.649 164.305V105.961C175.649 105.356 175.546 104.757 175.345 104.199C175.145 103.64 174.852 103.133 174.482 102.705C174.113 102.278 173.674 101.939 173.191 101.708C172.708 101.476 172.19 101.357 171.667 101.357Z" fill="#E6E6EE"/>
<path d="M157.526 128.593C160.634 128.593 163.154 125.68 163.154 122.087C163.154 118.493 160.634 115.58 157.526 115.58C154.418 115.58 151.899 118.493 151.899 122.087C151.899 125.68 154.418 128.593 157.526 128.593Z" fill="#D0CDE1"/>
<path d="M172.154 131.529L165.348 123.659C166.184 122.186 166.517 120.406 166.284 118.664C166.051 116.923 165.267 115.343 164.085 114.231C162.902 113.119 161.405 112.553 159.883 112.643C158.361 112.733 156.921 113.473 155.844 114.719C154.766 115.965 154.126 117.629 154.048 119.389C153.97 121.15 154.459 122.88 155.421 124.247C156.383 125.614 157.75 126.52 159.256 126.79C160.762 127.06 162.302 126.674 163.576 125.707L170.383 133.577L172.154 131.529ZM157.098 123.337C156.484 122.628 156.067 121.725 155.898 120.742C155.729 119.759 155.815 118.74 156.147 117.814C156.479 116.887 157.041 116.096 157.762 115.539C158.483 114.982 159.33 114.685 160.197 114.685C161.065 114.685 161.912 114.982 162.633 115.539C163.354 116.096 163.916 116.887 164.248 117.814C164.58 118.74 164.666 119.759 164.497 120.742C164.328 121.725 163.911 122.628 163.297 123.337C162.89 123.808 162.407 124.181 161.875 124.436C161.343 124.691 160.773 124.822 160.197 124.822C159.622 124.822 159.052 124.691 158.52 124.436C157.988 124.181 157.505 123.808 157.098 123.337Z" fill="#3F3D56"/>
<path d="M172.801 139.127H150.827V142.225H172.801V139.127Z" fill="#3F3D56"/>
</svg>
