<svg width="313" height="252" viewBox="0 0 313 252" fill="none" xmlns="http://www.w3.org/2000/svg">
<path d="M146.682 149.08C147.469 148.796 148.267 148.493 149.051 148.18L149.359 148.988C148.566 149.304 147.76 149.61 146.963 149.897L146.682 149.08Z" fill="#E6E6E6"/>
<path d="M94.5639 5.28352C95.6247 4.86019 96.7037 4.45776 97.7714 4.08714L98.0434 4.90782C96.4449 5.4626 94.8297 6.08671 93.2632 6.75453L92.9376 5.95428C93.4754 5.72516 94.0175 5.50157 94.5639 5.28352ZM88.238 8.1508L88.6163 8.92637C87.0954 9.70224 85.5849 10.5403 84.1255 11.417L83.6967 10.6697C85.1724 9.78336 86.7001 8.93573 88.238 8.1508ZM102.716 2.55807C104.377 2.10739 106.071 1.7106 107.752 1.37868L107.912 2.22951C106.251 2.55776 104.576 2.95008 102.934 3.39605L102.716 2.55807ZM79.3347 13.5013L79.8128 14.2171C78.4129 15.1963 77.0286 16.2384 75.6984 17.3142L75.1729 16.6346C76.5187 15.5462 77.9188 14.4919 79.3347 13.5013V13.5013ZM112.856 0.55647C114.558 0.343377 116.29 0.188628 118.003 0.0961658L118.048 0.961218C116.353 1.05297 114.641 1.20617 112.959 1.41668L112.856 0.55647ZM71.233 20.054L71.8033 20.6949C70.5492 21.862 69.3194 23.0881 68.1486 24.3384L67.5371 23.7385C68.7213 22.4743 69.9646 21.2346 71.233 20.054L71.233 20.054ZM123.177 0C124.896 0.0292352 126.635 0.120006 128.343 0.270158L128.271 1.13386C126.582 0.985451 124.863 0.895562 123.163 0.866734L123.177 0ZM64.0964 27.6753L64.7468 28.2306C63.6611 29.5632 62.6064 30.9505 61.6135 32.3542L60.9269 31.846C61.9315 30.4264 62.998 29.0234 64.0964 27.6753ZM133.478 0.902801C135.176 1.173 136.884 1.50631 138.556 1.89415L138.369 2.73924C136.716 2.35605 135.027 2.02605 133.347 1.75877L133.478 0.902801ZM58.0435 36.2291L58.762 36.6881C57.8634 38.1599 57.0034 39.6817 56.2057 41.2118L55.4581 40.8044C56.265 39.2565 57.1347 37.7172 58.0435 36.2291ZM143.556 3.23855C145.199 3.74219 146.846 4.31054 148.454 4.92811L148.156 5.73924C146.567 5.12889 144.937 4.56683 143.313 4.0687L143.556 3.23855ZM53.1831 45.5501L53.9559 45.9048C53.2615 47.4881 52.6111 49.1161 52.0234 50.7441L51.2286 50.4436C51.8232 48.7974 52.4808 47.1511 53.1831 45.5501ZM153.226 6.955C154.788 7.68297 156.345 8.47525 157.853 9.30922L157.45 10.0713C155.959 9.24654 154.42 8.46361 152.875 7.74367L153.226 6.955ZM49.605 55.4639L50.4174 55.7084C49.94 57.3718 49.5122 59.0758 49.146 60.7725L48.3191 60.5857C48.6891 58.8697 49.1219 57.1464 49.605 55.4639ZM162.31 11.9796C163.76 12.9174 165.196 13.9186 166.578 14.9544L166.078 15.6538C164.711 14.6295 163.291 13.6396 161.857 12.7117L162.31 11.9796ZM47.3791 65.7874L48.2164 65.9156C47.965 67.6338 47.769 69.382 47.6338 71.1128L46.7896 71.0436C46.9262 69.2932 47.1244 67.525 47.3791 65.7874ZM170.637 18.2201C171.947 19.3509 173.235 20.5428 174.466 21.7622L173.876 22.3844C172.66 21.179 171.386 20.0004 170.091 18.8823L170.637 18.2201ZM46.5549 76.33L47.4019 76.339C47.3838 78.0767 47.4247 79.8371 47.5236 81.5717L46.6779 81.6221C46.5777 79.8677 46.5362 78.087 46.5549 76.33ZM178.046 25.5634C179.194 26.8687 180.311 28.2315 181.367 29.6137L180.699 30.1472C179.655 28.7806 178.551 27.4336 177.416 26.1427L178.046 25.5634ZM47.1578 86.8859L47.9984 86.7757C48.214 88.4973 48.4912 90.2325 48.8218 91.9332L47.9911 92.1021C47.6567 90.382 47.3764 88.6271 47.1578 86.8859ZM184.405 33.8886C185.365 35.3423 186.288 36.8492 187.148 38.3674L186.415 38.802C185.565 37.3009 184.652 35.8111 183.703 34.3741L184.405 33.8886ZM49.1724 97.2469L49.9899 97.0201C50.4334 98.6921 50.9399 100.372 51.4949 102.014L50.6945 102.297C50.133 100.637 49.621 98.938 49.1724 97.2469V97.2469ZM189.585 43.028C190.34 44.6003 191.054 46.2217 191.706 47.8474L190.922 48.1761C190.277 46.5684 189.572 44.9651 188.824 43.4104L189.585 43.028ZM53.3279 106.893C53.9895 108.493 54.7124 110.089 55.4764 111.635L54.7207 112.026C53.9477 110.462 53.2167 108.849 52.5475 107.231L53.3279 106.893ZM57.936 116.215C58.805 117.708 59.734 119.187 60.6979 120.612L60.0016 121.105C59.0266 119.665 58.0868 118.169 57.2081 116.658L57.936 116.215ZM63.7495 124.802C64.8081 126.156 65.926 127.489 67.0723 128.764L66.4489 129.351C65.2894 128.061 64.1587 126.713 63.0884 125.344L63.7495 124.802ZM70.6555 132.482C71.8875 133.676 73.1747 134.839 74.481 135.941L73.9422 136.61C72.6209 135.496 71.3192 134.319 70.0732 133.112L70.6555 132.482ZM78.5305 139.124C79.9116 140.135 81.343 141.108 82.7836 142.017L82.3393 142.755C80.882 141.836 79.4345 140.851 78.0374 139.829L78.5305 139.124ZM87.2211 144.607C88.7217 145.415 90.2692 146.18 91.8208 146.882L91.4783 147.675C89.9091 146.965 88.3441 146.191 86.8264 145.374L87.2211 144.607ZM96.562 148.832C98.1589 149.424 99.7944 149.967 101.423 150.446L101.189 151.279C99.5421 150.795 97.8879 150.245 96.2733 149.646L96.562 148.832ZM106.38 151.719C108.042 152.083 109.735 152.393 111.413 152.64L111.292 153.498C109.595 153.248 107.883 152.935 106.203 152.566L106.38 151.719ZM116.496 153.206C118.19 153.335 119.909 153.405 121.605 153.414L121.601 154.28C119.885 154.271 118.146 154.201 116.433 154.071L116.496 153.206ZM126.717 153.259C128.41 153.148 130.12 152.975 131.801 152.745L131.914 153.604C130.214 153.837 128.484 154.012 126.772 154.124L126.717 153.259ZM136.839 151.873C138.499 151.525 140.17 151.113 141.805 150.648L142.032 151.484C140.377 151.953 138.687 152.37 137.009 152.722L136.839 151.873Z" fill="#E6E6E6"/>
<path d="M192.74 53.1975L193.544 52.9248C193.813 53.7553 194.07 54.5946 194.307 55.4196L193.495 55.6643C193.26 54.8487 193.006 54.0187 192.74 53.1975Z" fill="#E6E6E6"/>
<path d="M183.674 100.84L191.491 98.9874C191.868 98.8981 192.264 98.9427 192.613 99.1139C192.962 99.2851 193.244 99.5727 193.412 99.9295L201.42 116.917C201.507 117.102 201.554 117.305 201.557 117.511C201.56 117.716 201.518 117.92 201.436 118.108C201.353 118.295 201.232 118.462 201.08 118.597C200.928 118.731 200.748 118.83 200.555 118.886L192.61 121.195C192.185 121.319 191.73 121.28 191.331 121.086C190.931 120.892 190.615 120.555 190.44 120.14L185.33 107.999L185.175 108.087L184.202 105.787L184.364 105.702L182.938 102.313C182.876 102.168 182.847 102.011 182.852 101.853C182.858 101.695 182.897 101.54 182.967 101.399C183.037 101.259 183.137 101.135 183.259 101.039C183.381 100.942 183.523 100.874 183.674 100.84Z" fill="#3F3D56"/>
<path d="M190.549 99.6179L191.462 99.4017C191.724 99.3396 191.999 99.3711 192.241 99.4908C192.483 99.6106 192.678 99.8116 192.793 100.06L200.609 116.939C200.654 117.036 200.678 117.142 200.679 117.25C200.681 117.357 200.659 117.464 200.617 117.562C200.574 117.66 200.511 117.748 200.432 117.819C200.354 117.89 200.261 117.943 200.16 117.974L192.271 120.409C192.049 120.478 191.809 120.46 191.598 120.36C191.388 120.26 191.221 120.083 191.129 119.865L183.734 102.257C183.686 102.143 183.663 102.02 183.667 101.896C183.671 101.772 183.701 101.65 183.756 101.539C183.811 101.429 183.888 101.332 183.984 101.255C184.079 101.179 184.19 101.125 184.308 101.097L185.174 100.891C185.258 100.872 185.345 100.881 185.424 100.917C185.502 100.953 185.566 101.015 185.607 101.093C185.643 101.161 185.7 101.216 185.769 101.248C185.838 101.28 185.915 101.288 185.989 101.27L190.099 100.297C190.244 100.262 190.371 100.173 190.454 100.048C190.538 99.9217 190.572 99.7682 190.549 99.6179Z" fill="#6C63FF"/>
<path d="M239.818 76.9598C239.595 76.0053 239.061 75.1567 238.305 74.5523C237.549 73.9479 236.616 73.6234 235.656 73.6317C232.838 73.6636 229.429 74.3772 230.197 77.7817C231.467 83.4144 240.574 107.895 240.574 107.895L218.337 110.712C218.337 110.712 200.972 108.112 206.478 114.178C211.984 120.244 219.185 116.778 219.185 116.778C219.185 116.778 247.774 117.563 247.774 112.661C247.774 111.361 247.538 109.623 246.627 105.77L239.818 76.9598Z" fill="#FFB8B8"/>
<path d="M222.997 69.5492C229.079 69.5492 234.009 64.5055 234.009 58.2838C234.009 52.062 229.079 47.0183 222.997 47.0183C216.915 47.0183 211.985 52.062 211.985 58.2838C211.985 64.5055 216.915 69.5492 222.997 69.5492Z" fill="#FFB8B8"/>
<path d="M230.409 64.5664C230.409 64.5664 229.562 73.2321 232.526 76.6984H216.432C216.432 76.6984 220.244 73.2321 217.279 66.2996C214.314 59.367 230.409 64.5664 230.409 64.5664Z" fill="#FFB8B8"/>
<path d="M240.997 97.4964C240.697 98.8482 240.396 100.04 240.099 101.08V101.084C238.977 105.049 237.944 106.894 237.334 107.713C237.178 107.949 236.985 108.157 236.762 108.329L210.926 100.963C210.926 100.963 211.773 91.8636 213.89 89.6972C216.008 87.5308 215.161 75.832 215.161 75.832L221.938 73.6656C221.938 73.6656 228.227 73.449 232.548 73.4793C233.903 73.4836 235.063 73.5139 235.775 73.5833C235.964 73.5976 236.153 73.6251 236.338 73.6656C238.032 74.0989 243.115 87.9641 240.997 97.4964Z" fill="#FFB8B8"/>
<path d="M229.35 101.613C229.35 101.613 223.632 74.9653 221.514 74.0988C219.509 73.2782 215.585 75.3986 215.585 75.3986C215.585 75.3986 222.657 71.2824 226.215 101.613H229.35Z" fill="#2F2E41"/>
<path d="M240.099 101.079V101.084C238.977 105.048 237.943 106.894 237.333 107.713C235.851 99.0691 232.793 80.5634 232.547 73.4791C233.903 73.4834 235.063 73.5138 235.775 73.5831C236.054 78.9559 238.253 88.2282 240.099 101.079Z" fill="#2F2E41"/>
<path d="M211.772 95.763C211.772 95.763 215.373 101.179 218.337 100.746C221.302 100.313 237.913 102.171 238.714 105.141L234.008 121.977V128.043C234.008 128.043 240.025 132.799 240.631 145.909C240.85 151.215 240.139 156.518 238.532 161.567L236.55 167.905C236.55 167.905 234.432 179.171 236.973 183.937C239.515 188.703 238.244 199.102 238.244 199.102C238.244 199.102 260.904 231.382 248.197 234.415C235.491 237.448 222.573 242.864 222.149 234.631C221.726 226.399 219.184 170.505 219.184 170.505C219.184 170.505 221.726 233.332 211.984 234.631C202.243 235.931 183.607 245.03 182.76 234.198C181.913 223.366 204.36 134.109 204.36 134.109C204.36 134.109 203.937 120.677 211.137 115.478L212.831 108.545C212.831 108.545 207.961 98.3627 211.772 95.763Z" fill="#2F2E41"/>
<path d="M213.466 85.3644L211.137 97.7127V99.1502L214.769 87.5281L213.466 85.3644Z" fill="#2F2E41"/>
<path d="M231.371 227.88C231.371 227.88 232.381 239.346 229.131 240.415C225.88 241.485 211.322 240.289 214.922 247.178C218.522 254.066 246.851 250.619 245.627 246.901C244.403 243.182 238.819 225.769 238.819 225.769L231.371 227.88Z" fill="#2F2E41"/>
<path d="M194.946 228.746C194.946 228.746 195.956 240.213 192.705 241.282C189.454 242.351 174.897 241.156 178.497 248.044C182.096 254.933 210.426 251.486 209.202 247.767C207.978 244.049 202.394 226.635 202.394 226.635L194.946 228.746Z" fill="#2F2E41"/>
<path d="M220.759 78.2595C220.535 77.3051 220.002 76.4565 219.246 75.852C218.49 75.2476 217.556 74.9231 216.597 74.9315C213.779 74.9634 210.369 75.677 211.137 79.0815C212.408 84.7142 218.337 111.145 218.337 111.145L199.278 112.011C199.278 112.011 181.913 109.412 187.419 115.478C192.925 121.544 200.125 118.077 200.125 118.077C200.125 118.077 221.091 121.327 224.479 117.861C224.513 117.826 224.546 117.792 224.58 117.758C225.936 116.391 226.924 114.688 227.447 112.816C227.971 110.943 228.012 108.964 227.568 107.07L220.759 78.2595Z" fill="#FFB8B8"/>
<path d="M227.022 40.3685C219.987 40.3685 214.284 48.4543 214.284 58.4286V71.101H217.335L219.101 66.4057L218.66 71.101H238.268L239.873 66.8326L239.472 71.101H241.68V61.1508C241.68 49.6731 235.117 40.3685 227.022 40.3685Z" fill="#2F2E41"/>
<path d="M228.361 43.1767C227.595 42.1251 226.603 41.2681 225.462 40.6721C224.32 40.0761 223.06 39.7572 221.778 39.7402H221.466C215.444 39.7402 210.563 45.3144 210.563 52.1905V52.1906H212.581L212.906 49.6532L213.384 52.1906H225.351L226.354 50.0439L226.103 52.1906H228.457C229.556 57.7718 227.977 63.353 223.722 68.9342H227.732L229.737 64.6409L229.236 68.9342H236.881L238.384 59.0597C238.385 51.6646 234.184 45.3938 228.361 43.1767Z" fill="#2F2E41"/>
<path d="M150.359 74.2043V10.8389H0V95.7631H133.15H150.359H175.771L150.359 74.2043Z" fill="#F2F2F2"/>
<path d="M292.308 251.539C292.211 251.377 289.919 247.462 289.124 239.332C288.396 231.874 288.864 219.303 295.237 201.767C307.311 168.547 292.455 141.743 292.303 141.476L293.036 141.041C293.074 141.108 296.908 147.942 299.172 158.825C302.165 173.252 301.075 188.253 296.031 202.069C283.978 235.233 292.939 250.933 293.031 251.088L292.308 251.539Z" fill="#3F3D56"/>
<path d="M287.587 139.525C290.628 139.525 293.093 137.003 293.093 133.892C293.093 130.782 290.628 128.26 287.587 128.26C284.546 128.26 282.081 130.782 282.081 133.892C282.081 137.003 284.546 139.525 287.587 139.525Z" fill="#6C63FF"/>
<path d="M304.953 160.323C307.994 160.323 310.459 157.801 310.459 154.69C310.459 151.579 307.994 149.057 304.953 149.057C301.912 149.057 299.447 151.579 299.447 154.69C299.447 157.801 301.912 160.323 304.953 160.323Z" fill="#6C63FF"/>
<path d="M293.093 174.188C296.134 174.188 298.599 171.666 298.599 168.555C298.599 165.444 296.134 162.922 293.093 162.922C290.052 162.922 287.587 165.444 287.587 168.555C287.587 171.666 290.052 174.188 293.093 174.188Z" fill="#6C63FF"/>
<path d="M307.494 185.887C310.535 185.887 313 183.365 313 180.254C313 177.143 310.535 174.621 307.494 174.621C304.453 174.621 301.988 177.143 301.988 180.254C301.988 183.365 304.453 185.887 307.494 185.887Z" fill="#6C63FF"/>
<path d="M288.857 204.085C291.898 204.085 294.363 201.563 294.363 198.452C294.363 195.341 291.898 192.82 288.857 192.82C285.816 192.82 283.351 195.341 283.351 198.452C283.351 201.563 285.816 204.085 288.857 204.085Z" fill="#6C63FF"/>
<path d="M295.634 251.746C295.634 251.746 290.128 237.881 306.647 227.482L295.634 251.746Z" fill="#3F3D56"/>
<path d="M288.863 251.495C288.863 251.495 286.357 236.751 266.962 236.877L288.863 251.495Z" fill="#3F3D56"/>
<path d="M130.452 35.103H18.2126V39.0026H130.452V35.103Z" fill="#6C63FF"/>
<path d="M130.452 45.0684H18.2126V48.968H130.452V45.0684Z" fill="#3F3D56"/>
<path d="M130.452 55.0343H18.2126V58.9339H130.452V55.0343Z" fill="#3F3D56"/>
<path d="M136.805 93.1634C138.676 93.1634 140.193 91.6114 140.193 89.6971C140.193 87.7827 138.676 86.2307 136.805 86.2307C134.934 86.2307 133.417 87.7827 133.417 89.6971C133.417 91.6114 134.934 93.1634 136.805 93.1634Z" fill="#6C63FF"/>
<path d="M146.547 93.1634C148.418 93.1634 149.935 91.6114 149.935 89.6971C149.935 87.7827 148.418 86.2307 146.547 86.2307C144.675 86.2307 143.158 87.7827 143.158 89.6971C143.158 91.6114 144.675 93.1634 146.547 93.1634Z" fill="#6C63FF"/>
<path d="M156.288 93.1634C158.159 93.1634 159.676 91.6114 159.676 89.6971C159.676 87.7827 158.159 86.2307 156.288 86.2307C154.417 86.2307 152.9 87.7827 152.9 89.6971C152.9 91.6114 154.417 93.1634 156.288 93.1634Z" fill="#6C63FF"/>
</svg>
