<svg width="330" height="251" viewBox="0 0 330 251" fill="none" xmlns="http://www.w3.org/2000/svg">
<path d="M0 0V121.115H110.803V0H0ZM56.3047 118.482C55.7092 118.482 55.1271 118.289 54.632 117.928C54.1368 117.566 53.7509 117.052 53.523 116.451C53.2951 115.849 53.2355 115.187 53.3517 114.549C53.4678 113.911 53.7546 113.324 54.1757 112.864C54.5968 112.404 55.1333 112.09 55.7173 111.963C56.3014 111.836 56.9068 111.901 57.457 112.15C58.0072 112.399 58.4774 112.821 58.8083 113.363C59.1391 113.904 59.3157 114.54 59.3157 115.191C59.3157 116.064 58.9985 116.901 58.4338 117.518C57.8692 118.135 57.1033 118.482 56.3047 118.482Z" fill="#F1F0F8"/>
<path d="M330 141.52C330 195.459 294.022 240.219 246.868 248.688C241.503 249.649 236.075 250.131 230.639 250.129C217.59 250.132 204.668 247.325 192.611 241.868C180.555 236.411 169.6 228.411 160.373 218.325C151.146 208.239 143.827 196.265 138.835 183.087C133.843 169.908 131.275 155.784 131.277 141.52C131.277 81.5388 175.764 32.9117 230.639 32.9117C251.378 32.877 271.602 39.9692 288.452 53.1853C313.608 72.8863 330 105.11 330 141.52Z" fill="#D9D8E7"/>
<path d="M299.61 36.1679L308.24 33.2269L308.984 24.9195C308.984 24.9195 287.995 16.2533 281.285 31.5823C278.916 36.9947 275.93 40.2452 273.058 42.1857C269.102 44.8586 264.226 45.1723 259.858 43.4284C245.311 37.6215 241.886 54.1349 241.886 54.1349C241.886 54.1349 243.143 56.4856 252.11 57.0636C256.572 57.3512 260.223 61.0218 262.766 64.6369C268.21 72.3781 279.392 70.1409 282.138 60.8496C282.182 60.6998 282.226 60.5481 282.269 60.3946C286.558 45.0357 306.085 57.2644 306.085 57.2644L307.332 43.3531L299.61 36.1679Z" fill="#2F2E41"/>
<path d="M240.811 73.7634C246.648 73.7634 251.38 68.591 251.38 62.2105C251.38 55.83 246.648 50.6575 240.811 50.6575C234.974 50.6575 230.242 55.83 230.242 62.2105C230.242 68.591 234.974 73.7634 240.811 73.7634Z" fill="#2F2E41"/>
<path d="M235.526 123.826C251.092 123.826 263.711 110.033 263.711 93.0183C263.711 76.0036 251.092 62.2105 235.526 62.2105C219.96 62.2105 207.341 76.0036 207.341 93.0183C207.341 110.033 219.96 123.826 235.526 123.826Z" fill="#2F2E41"/>
<path d="M234.645 125.431C245.347 125.431 254.022 115.948 254.022 104.25C254.022 92.5528 245.347 83.07 234.645 83.07C223.944 83.07 215.268 92.5528 215.268 104.25C215.268 115.948 223.944 125.431 234.645 125.431Z" fill="#A0616A"/>
<path d="M227.012 120.296L230.535 140.835L248.151 138.267C248.151 138.267 245.215 122.222 246.976 117.729L227.012 120.296Z" fill="#A0616A"/>
<path d="M140.109 199.883C140.109 199.883 120.145 187.046 118.383 196.032C116.622 205.018 138.347 208.869 138.347 208.869L140.109 199.883Z" fill="#A0616A"/>
<path d="M261.656 75.368C261.656 75.368 247.563 63.815 241.692 68.3078C235.82 72.8007 257.545 87.5628 259.894 86.2791C262.243 84.9955 261.656 75.368 261.656 75.368Z" fill="#A0616A"/>
<path d="M248.151 127.356L227.012 131.207V141.476C227.012 141.476 207.048 148.537 207.048 151.746C207.048 154.955 201.763 167.15 201.763 167.15C201.763 167.15 188.845 177.419 199.415 189.614C199.415 189.614 203.525 196.674 200.589 197.316C197.653 197.958 191.194 199.883 194.13 202.45C197.066 205.018 241.105 222.347 244.628 221.063C248.151 219.78 275.161 174.21 275.161 162.657C275.161 151.104 264.005 134.416 264.005 134.416L251.087 132.491L248.151 127.356Z" fill="#D0CDE1"/>
<path d="M208.809 151.104C208.809 151.104 200.589 149.82 197.653 160.731C194.717 171.643 184.735 206.943 184.735 206.943C184.735 206.943 148.917 206.301 139.522 196.674L135.411 211.436C135.411 211.436 189.432 232.616 194.13 228.765C198.827 224.914 219.378 162.657 219.378 162.657L208.809 151.104Z" fill="#D0CDE1"/>
<path d="M262.243 136.342L264.004 134.416C264.004 134.416 286.317 108.101 285.73 101.683C285.73 101.683 273.986 85.6372 259.307 90.1301C259.307 90.1301 252.848 72.8006 262.83 73.4425C272.812 74.0843 309.805 71.517 309.217 90.1301C308.63 108.743 273.399 165.866 273.399 165.866L262.243 136.342Z" fill="#D0CDE1"/>
<path d="M246.868 248.688C241.503 249.649 236.075 250.131 230.639 250.129C213.364 250.159 196.384 245.242 181.388 235.868L184.878 228.144L195.986 203.539L196.479 202.45L204.57 205.116L245.215 218.498L245.326 220.548L246.868 248.688Z" fill="#2F2E41"/>
<path d="M253.871 94.7064C256.064 87.6593 249.63 78.8918 239.499 75.1237C229.367 71.3555 219.376 74.0137 217.182 81.0608C214.989 88.108 221.423 96.8755 231.554 100.644C241.685 104.412 251.677 101.754 253.871 94.7064Z" fill="#2F2E41"/>
<path d="M56.7855 116.032C60.8661 107.86 70.6396 102.685 78.6347 107.35C82.2334 109.449 85.0941 113.163 86.0023 117.552C87.0573 122.651 84.8356 127.513 82.5433 131.797C81.2991 134.122 79.9359 136.4 78.9062 138.853C77.8399 141.392 77.078 144.328 77.8808 147.091C78.604 149.58 80.4153 151.391 82.3995 152.721C84.5896 154.134 86.9189 155.27 89.3431 156.109C94.3333 157.924 99.5968 158.668 104.845 158.302C107.453 158.108 110.04 157.651 112.571 156.937C115.264 156.186 117.906 155.235 120.604 154.503C125.107 153.28 130.241 152.672 134.511 155.129C138.66 157.516 140.516 162.507 141.091 167.364C142.151 176.331 138.898 185.636 133.025 191.916C130.208 194.929 126.662 197.418 122.8 198.437C119.431 199.325 115.104 199.268 112.423 196.515C109.43 193.442 110.133 188.514 112.511 185.272C115.544 181.136 120.683 180.142 125.269 180.041C130.486 179.927 135.698 180.776 140.912 180.248C143.457 180.032 145.954 179.373 148.309 178.298C150.38 177.302 152.269 175.905 153.884 174.174C157.103 170.756 159.272 166.202 160.353 161.467C161.653 155.773 161.37 149.79 160.361 144.071C159.823 141.122 159.13 138.209 158.287 135.347C157.938 134.139 156.194 134.655 156.545 135.872C159.652 146.642 161.384 159.095 155.381 169.094C152.896 173.335 149.026 176.38 144.559 177.61C139.363 179.021 133.91 178.324 128.628 178.114C123.605 177.914 118.091 178.129 113.784 181.327C110.252 183.95 107.782 188.938 108.849 193.648C109.879 198.19 113.872 200.493 117.866 200.849C122.056 201.222 126.179 199.684 129.698 197.281C137.019 192.28 141.886 183.487 142.905 174.163C143.436 169.305 142.896 164.072 140.88 159.662C139.818 157.275 138.165 155.262 136.109 153.85C134.058 152.476 131.69 151.799 129.312 151.56C123.908 151.016 118.715 153.044 113.589 154.595C110.97 155.426 108.286 155.986 105.572 156.268C102.937 156.507 100.287 156.46 97.6613 156.127C95.0555 155.791 92.4875 155.168 89.9963 154.268C87.5551 153.443 85.2178 152.288 83.0387 150.83C81.1161 149.486 79.4536 147.561 79.359 144.94C79.2564 142.096 80.5681 139.436 81.816 137.038C84.281 132.302 87.325 127.669 87.9688 122.125C88.5319 117.274 86.7464 112.494 83.6636 109.035C82.1183 107.279 80.2581 105.891 78.1993 104.957C76.1404 104.023 73.9275 103.565 71.6989 103.609C67.1244 103.752 62.7443 105.927 59.3796 109.266C57.7112 110.924 56.3073 112.874 55.2256 115.036C54.6684 116.152 56.2278 117.149 56.7855 116.032Z" fill="#3F3D56"/>
<path d="M59.9176 11.19C57.0509 11.1901 54.2624 12.2114 51.9742 14.0991C49.6861 15.9867 48.0231 18.638 47.237 21.6514C46.4509 24.6648 46.5846 27.8761 47.6179 30.799C48.6511 33.7218 50.5275 36.1971 52.963 37.8498C53.0014 37.8759 53.042 37.8982 53.0806 37.9238C53.5674 36.3643 54.4883 35.0103 55.7143 34.0516C56.9404 33.0928 58.4101 32.5774 59.9176 32.5774C61.4251 32.5774 62.8948 33.0928 64.1209 34.0516C65.3469 35.0103 66.2678 36.3643 66.7547 37.9238C66.7932 37.8982 66.8339 37.8759 66.8722 37.8498C69.3077 36.1971 71.1841 33.7218 72.2174 30.799C73.2506 27.8761 73.3843 24.6648 72.5982 21.6514C71.8121 18.638 70.1491 15.9867 67.861 14.0991C65.5729 12.2114 62.7843 11.1901 59.9176 11.19ZM59.9176 31.1825C58.9922 31.1825 58.0876 30.8826 57.3181 30.3206C56.5487 29.7586 55.949 28.9599 55.5948 28.0253C55.2407 27.0908 55.148 26.0625 55.3286 25.0704C55.5091 24.0783 55.9547 23.167 56.6091 22.4517C57.2635 21.7365 58.0972 21.2494 59.0048 21.052C59.9124 20.8547 60.8532 20.956 61.7082 21.3431C62.5631 21.7302 63.2939 22.3857 63.808 23.2267C64.3221 24.0678 64.5965 25.0566 64.5965 26.0682C64.5965 27.4246 64.1036 28.7254 63.2261 29.6846C62.3486 30.6437 61.1585 31.1825 59.9176 31.1825Z" fill="#3F3D56"/>
<path d="M37.3358 53.9752C38.6661 53.9752 39.7445 52.7964 39.7445 51.3423C39.7445 49.8882 38.6661 48.7094 37.3358 48.7094C36.0054 48.7094 34.927 49.8882 34.927 51.3423C34.927 52.7964 36.0054 53.9752 37.3358 53.9752Z" fill="#3F3D56"/>
<path d="M37.3358 65.8235C38.6661 65.8235 39.7445 64.6447 39.7445 63.1906C39.7445 61.7364 38.6661 60.5576 37.3358 60.5576C36.0054 60.5576 34.927 61.7364 34.927 63.1906C34.927 64.6447 36.0054 65.8235 37.3358 65.8235Z" fill="#3F3D56"/>
<path d="M37.3358 77.6717C38.6661 77.6717 39.7445 76.4928 39.7445 75.0387C39.7445 73.5846 38.6661 72.4058 37.3358 72.4058C36.0054 72.4058 34.927 73.5846 34.927 75.0387C34.927 76.4928 36.0054 77.6717 37.3358 77.6717Z" fill="#3F3D56"/>
<path d="M37.3358 89.5199C38.6661 89.5199 39.7445 88.3411 39.7445 86.8869C39.7445 85.4328 38.6661 84.254 37.3358 84.254C36.0054 84.254 34.927 85.4328 34.927 86.8869C34.927 88.3411 36.0054 89.5199 37.3358 89.5199Z" fill="#3F3D56"/>
<path d="M73.4671 72.4058H46.3686C45.0383 72.4058 43.9598 73.5846 43.9598 75.0387V75.0387C43.9598 76.4928 45.0383 77.6717 46.3686 77.6717H73.4671C74.7975 77.6717 75.8759 76.4928 75.8759 75.0387C75.8759 73.5846 74.7975 72.4058 73.4671 72.4058Z" fill="#3F3D56"/>
<path d="M73.4671 84.254H46.3686C45.0383 84.254 43.9598 85.4328 43.9598 86.8869C43.9598 88.341 45.0383 89.5199 46.3686 89.5199H73.4671C74.7975 89.5199 75.8759 88.341 75.8759 86.8869C75.8759 85.4328 74.7975 84.254 73.4671 84.254Z" fill="#3F3D56"/>
<path d="M73.4671 60.5576H46.3686C45.0383 60.5576 43.9598 61.7364 43.9598 63.1905V63.1906C43.9598 64.6447 45.0383 65.8235 46.3686 65.8235H73.4671C74.7975 65.8235 75.8759 64.6447 75.8759 63.1905C75.8759 61.7364 74.7975 60.5576 73.4671 60.5576Z" fill="#3F3D56"/>
<path d="M73.4671 48.7094H46.3686C45.0383 48.7094 43.9598 49.8882 43.9598 51.3423V51.3423C43.9598 52.7964 45.0383 53.9752 46.3686 53.9752H73.4671C74.7975 53.9752 75.8759 52.7964 75.8759 51.3423C75.8759 49.8882 74.7975 48.7094 73.4671 48.7094Z" fill="#3F3D56"/>
</svg>
